<svg xmlns="http://www.w3.org/2000/svg" viewBox="0 0 100 100" width="100" height="100">
  <defs>
    <linearGradient id="jaceBg" x1="0%" y1="0%" x2="100%" y2="100%">
      <stop offset="0%" stop-color="#3D3DFF"/>
      <stop offset="100%" stop-color="#7C3AED"/>
    </linearGradient>
  </defs>

  <!-- 배경 원 -->
  <rect width="100" height="100" rx="50" fill="url(#jaceBg)"/>

  <!-- 왼쪽 날개 -->
  <ellipse cx="26" cy="62" rx="7" ry="15" fill="#1F2937" transform="rotate(-15 26 62)"/>
  <!-- 오른쪽 날개 -->
  <ellipse cx="74" cy="62" rx="7" ry="15" fill="#1F2937" transform="rotate(15 74 62)"/>

  <!-- 펭귄 몸통 (검은 외곽) -->
  <ellipse cx="50" cy="58" rx="26" ry="30" fill="#1F2937"/>

  <!-- 흰 배 -->
  <ellipse cx="50" cy="62" rx="17" ry="22" fill="#FFFFFF"/>

  <!-- 왼쪽 눈 흰자위 -->
  <circle cx="42" cy="45" r="4" fill="white"/>
  <!-- 왼쪽 눈동자 -->
  <circle cx="42.5" cy="45.5" r="2" fill="#1F2937"/>
  <!-- 왼쪽 눈 하이라이트 -->
  <circle cx="43.2" cy="44.7" r="0.6" fill="white"/>

  <!-- 오른쪽 눈 흰자위 -->
  <circle cx="58" cy="45" r="4" fill="white"/>
  <!-- 오른쪽 눈동자 -->
  <circle cx="57.5" cy="45.5" r="2" fill="#1F2937"/>
  <!-- 오른쪽 눈 하이라이트 -->
  <circle cx="58.2" cy="44.7" r="0.6" fill="white"/>

  <!-- 부리 -->
  <path d="M 45 52 L 55 52 L 50 58 Z" fill="#F59E0B"/>
  <path d="M 47 52.5 L 53 52.5 L 50 56 Z" fill="#FBBF24"/>

  <!-- 발 (둥근 주황) -->
  <ellipse cx="42" cy="88" rx="6" ry="2.5" fill="#F59E0B"/>
  <ellipse cx="58" cy="88" rx="6" ry="2.5" fill="#F59E0B"/>

  <!-- 볼터치 (살짝) -->
  <circle cx="36" cy="52" r="2.5" fill="rgba(244, 114, 182, 0.4)"/>
  <circle cx="64" cy="52" r="2.5" fill="rgba(244, 114, 182, 0.4)"/>
</svg>
